PathFileType	4	(X/Y/Z)	C:/Users/beibeiliu/ov580/test_trc/User3\sequence.32_training_dense_right.trc
DataRate	CameraRate	NumFrames	NumMarkers	Units	OrigDataRate	OrigDataStartFrame	OrigNumFrames
120	120	18	19	mm	120	1	109
Frame#	Time	ThumbCMC			ThumbMCP			ThumbIP			ThumbTip			IndexMCP			IndexPIP			IndexTip			MiddleMCP			MiddlePIP			MiddleTip			RingMCP			RingPIP			RingTip			PinkyMCP			PinkyPIP			PinkyTip			BackHand1			BackHand2			BackHand3	
		X0	Y0	Z0	X1	Y1	Z1	X2	Y2	Z2	X3	Y3	Z3	X4	Y4	Z4	X5	Y5	Z5	X6	Y6	Z6	X7	Y7	Z7	X8	Y8	Z8	X9	Y9	Z9	X10	Y10	Z10	X11	Y11	Z11	X12	Y12	Z12	X13	Y13	Z13	X14	Y14	Z14	X15	Y15	Z15	X16	Y16	Z16	X17	Y17	Z17	X18	Y18	Z18	
0	0	161.389	26.1918	-61.8387	155.692	33.1935	-99.0775	157.732	32.9072	-130.164	158.259	32.7271	-151.547	212.156	23.9102	-116.34	204.985	29.0767	-144.142	202.226	35.5209	-163.901	214.402	0.526028	-122.487	208.895	9.78006	-148.423	200.905	13.1262	-178.906	204.489	-16.5204	-120.696	200.163	-13.3142	-145.945	193.446	-12.9172	-172.194	193.924	-33.422	-114.469	189.009	-32.904	-136.23	184.698	-33.6431	-156.329	199.848	-23.6115	-63.0802	182.73	-25.0961	-35.383	192.316	8.19296	-46.0817	
1	0.00833333	135.426	33.6614	-62.0207	125.498	34.7705	-91.3232	125.722	38.0695	-125.238	120.471	39.7878	-145.661	177.69	45.632	-116.262	169.222	50.9389	-143.684	162.801	49.287	-167.588	185.961	28.1263	-121.922	175.851	32.464	-152.711	166.027	32.598	-180.724	183.335	8.39747	-123.384	178.482	2.47831	-144.227	168.235	6.25166	-171.418	179.633	-13.0554	-114.131	173.107	-14.3133	-137.383	165.662	-11.7566	-157.828	186.256	-2.07265	-64.5152	173.349	-10.1369	-36.4258	172.38	26.3694	-47.7232	
2	0.0166667	104.005	28.8106	-52.1811	96.2996	29.4641	-87.0649	90.5357	34.4353	-118.109	89.3682	33.9563	-139.175	139.659	55.0567	-113.933	128.737	59.0434	-136.652	123.086	55.3153	-161.097	151.271	42.1239	-125.152	140.013	43.618	-150.002	128.228	40.0144	-179.282	158.323	20.0084	-121.551	150.639	19.4652	-142.313	140.109	15.6125	-168.59	160.841	1.49138	-115.153	153.158	-3.3608	-133.992	145.74	-3.18533	-153.187	167.195	12.0482	-65.1795	162.016	-0.953632	-38.1122	146	32.2149	-44.384	
3	0.025	82.2443	20.7088	-48.8236	69.2971	18.7947	-78.492	65.3179	22.7214	-112.132	59.9871	21.8731	-133.582	105.791	55.236	-107.452	93.1654	54.5339	-135.774	88.6701	49.8259	-157.846	124.971	42.0922	-120.625	111.372	41.09	-147.923	98.8416	35.8041	-173.605	132.946	27.251	-119.888	125.632	23.1354	-143.867	113.59	18.138	-165.84	141.733	6.36387	-111.765	134.632	1.15359	-129.715	124.657	-2.76896	-154.595	145.95	21.0865	-61.8846	143.847	2.52567	-34.3861	119.698	35.6064	-43.7635	
4	0.0333333	67.3595	12.554	-45.1917	55.5873	7.01076	-74.1063	47.2548	9.31609	-105.381	42.7922	7.71373	-128.337	84.0738	47.4431	-108.077	70.6544	46.7385	-128.95	64.9948	39.5017	-152.653	101.601	40.626	-113.437	87.9075	35.9856	-143.947	75.5781	30.9522	-167.913	115.16	24.0215	-112.357	104.196	21.5873	-140.958	94.4074	13.9061	-164.763	128.266	3.10661	-107.867	118.027	-0.779768	-132.109	108.442	-7.69188	-151.874	130.16	17.9345	-57.8739	135.467	2.23174	-32.5038	107.218	26.7697	-38.9102	
5	0.0416667	59.3289	6.65379	-42.918	48.558	-0.449556	-70.6262	38.0818	-1.33337	-97.1118	32.1875	-2.43295	-120.454	68.4963	42.4867	-103.158	59.5802	37.1984	-128.929	44.4359	34.0421	-150.747	90.7184	34.9098	-112.41	78.2014	30.6631	-139.264	61.7724	24.7228	-163.157	101.631	21.9476	-113.433	96.1768	17.0399	-137.363	81.6449	9.84413	-157.879	117.429	0.232778	-109.93	108.231	-3.00362	-126.6	98.8859	-12.0159	-151.895	123.437	14.5331	-60.5026	124.597	2.82009	-33.5385	97.3518	25.794	-40.4352	
6	0.05	55.4549	2.08963	-39.2234	38.483	-4.14884	-66.1112	27.0297	-4.76449	-96.5094	21.0702	-8.73194	-116.591	60.9456	38.9338	-100.796	45.6217	35.5603	-124.895	39.8354	27.2819	-147.175	79.53	34.1864	-110.281	66.9674	28.4567	-135.85	51.9652	19.9126	-161.976	97.312	18.7877	-112.694	88.6073	14.2031	-135.607	76.1884	5.71719	-156.809	109.47	0.165738	-104.366	101.903	-8.00287	-127.776	90.5316	-14.811	-149.404	114.483	15.2478	-54.8327	116.981	2.23048	-29.1819	88.4939	24.4598	-37.1066	
7	0.0583333	50.5077	-1.00118	-33.1434	35.1446	-6.4028	-64.182	24.0804	-7.92678	-92.9626	17.4459	-10.3835	-115.882	54.2429	38.7825	-98.708	42.3812	31.1867	-124.761	31.2729	25.1468	-146.551	75.3576	31.2146	-110.663	61.1909	26.1892	-135.298	47.2968	15.705	-164.268	92.612	16.9682	-111.784	84.0521	12.3816	-135.372	69.278	6.31585	-154.281	106.26	-0.396029	-102.016	97.6497	-5.99974	-122.333	89.1955	-14.24	-146.413	110.034	17.7577	-56.7952	114.746	1.48321	-26.0613	83.195	23.9169	-31.7355	
8	0.0666667	52.2707	0.772772	-37.2052	34.0734	-6.53611	-63.0479	24.7701	-8.22761	-90.1558	16.4298	-11.5485	-112.78	54.7165	36.892	-99.6388	40.9049	32.6803	-122.458	32.8605	25.4322	-141.797	75.8129	30.8483	-109.342	60.0098	24.4085	-136.837	46.354	17.3768	-157.247	90.8398	18.4105	-106.528	81.5329	13.6	-131.039	68.0557	4.04016	-156.617	105.261	-1.45307	-103.735	93.8014	-6.77877	-123.357	89.0278	-16.8458	-143.02	113.033	14.5808	-56.249	116.206	0.621283	-29.4835	85.2925	21.2468	-31.9492	
9	0.075	49.9347	2.00828	-32.2297	33.9828	-4.94166	-63.8135	23.3309	-5.78554	-90.1887	16.2504	-7.77254	-114.354	57.4705	37.6506	-100.239	41.2297	34.2117	-118.613	31.2317	24.8042	-143.515	72.778	33.5709	-110.694	60.1161	25.8089	-136.289	45.6122	19.4618	-157.698	91.8697	18.4336	-107.002	80.9225	14.6046	-130.501	67.7384	5.5867	-154.179	106.476	-2.59804	-104.665	95.0217	-7.06527	-123.232	85.4367	-12.4425	-142.778	107.862	14.4214	-53.2735	115.428	1.16226	-30.5362	88.0783	22.6981	-31.1875	
10	0.0833333	52.9865	4.24953	-35.5839	32.669	-1.508	-65.6999	21.0254	-4.47441	-92.5334	17.6628	-6.94045	-116.019	57.8454	39.8393	-96.7943	40.7617	33.8069	-122.737	35.7748	25.5646	-142.641	75.9853	31.7695	-110.958	65.1578	26.2515	-134.43	47.9126	17.6933	-158.9	92.3644	17.5643	-111.243	82.614	13.8599	-132.175	68.9802	5.09786	-154.488	106.586	-4.14271	-104.949	95.0277	-7.59778	-123.015	84.2971	-14.2775	-145.718	109.214	14.0036	-52.081	115.779	1.46672	-26.2272	86.7273	21.8032	-31.8796	
11	0.0916667	51.5437	1.67374	-31.8767	38.2429	-3.33525	-63.5775	23.6663	-3.96905	-95.4299	16.4657	-7.02038	-117.599	56.2321	38.6315	-98.8433	43.9715	32.3239	-123.177	32.9574	23.7848	-144.471	75.8755	31.802	-107.382	63.7085	25.1493	-135.549	45.7936	18.007	-158.78	92.7118	16.7977	-110.302	83.7092	11.3439	-132.187	67.1208	2.89567	-155.41	102.272	-1.87801	-105.851	94.5845	-9.87796	-125.957	85.8659	-17.9278	-144.477	111.38	14.0274	-57.2739	114.967	0.560599	-27.8151	83.8382	24.7613	-34.5953	
12	0.1	50.1416	1.44402	-31.9697	37.5276	-4.82939	-63.2981	25.2038	-7.35664	-89.8042	18.1909	-9.26047	-112.548	56.1766	37.2472	-100.786	45.2279	29.5927	-122.657	32.8719	23.8396	-139.719	74.8677	29.6935	-111.679	64.6408	20.0086	-137.339	48.7889	12.4874	-159.153	91.7842	14.6458	-110.463	83.8442	7.28462	-134.877	67.4832	1.87531	-154.569	105.358	-5.14886	-105.797	94.6594	-10.5605	-123.272	84.1069	-17.9445	-142.599	111.823	13.8559	-54.3837	114.963	-1.47688	-28.1154	86.3335	22.8673	-30.2595	
13	0.108333	55.1376	0.253796	-34.4761	37.4244	-6.35361	-63.4112	27.5958	-7.35467	-90.4553	18.8013	-11.4061	-110.506	61.4762	33.1366	-98.6064	47.9755	27.3733	-122.649	33.9119	19.8834	-145.101	81.8528	25.4928	-108.941	67.5365	19.7122	-133.739	49.5962	9.62574	-161.387	94.783	10.9941	-111.847	81.6615	8.60198	-130.61	72.0498	-1.24831	-151.922	108.743	-8.66339	-102.648	95.8539	-14.814	-124.228	86.0748	-18.92	-139.419	112.204	10.1236	-51.546	116.499	-2.11443	-28.5269	87.0012	21.8807	-29.7902	
14	0.116667	54.3694	-0.0393512	-33.9991	35.3075	-7.30746	-61.0512	27.1852	-8.31883	-89.7388	19.1384	-10.2886	-115.17	60.1907	33.3999	-101.616	48.6027	24.8367	-124.429	35.6627	19.5179	-142.4	78.5131	25.4032	-108.879	69.3482	17.8998	-132.909	50.1879	8.97878	-159.653	96.9825	8.64822	-110.092	83.9587	4.72339	-134.485	69.3939	-4.05862	-155.009	107.896	-9.97885	-101.471	100.992	-17.0954	-121.837	86.6401	-22.3293	-142.847	115.737	7.01115	-53.7633	116.48	-2.79087	-25.623	88.0144	20.3545	-33.9605	
15	0.125	54.0017	2.10447	-33.5255	38.3075	-6.52603	-61.4379	26.4324	-8.06677	-88.7664	21.0088	-11.4676	-110.915	61.6759	33.6741	-100.512	47.3396	26.0035	-123.686	35.8713	20.0598	-142.476	80.3047	24.2224	-111.157	65.1967	18.9505	-135.251	50.3456	10.5733	-157.807	94.173	10.9097	-109.3	89.4995	3.45096	-131.591	72.9603	-5.74881	-154.43	108.857	-11.069	-102.247	100.135	-18.0753	-121.295	88.0068	-22.9639	-141.184	118.69	6.10865	-52.7045	121.159	-4.09308	-28.2064	90.0985	18.6067	-30.7683	
16	0.133333	58.3378	-0.288277	-32.4601	38.0504	-6.14888	-61.6029	30.6176	-7.98752	-91.6201	22.3193	-12.317	-112.879	63.156	31.9624	-101.026	48.4218	26.0209	-121.706	39.6635	16.0257	-144.557	82.9776	24.3571	-107.724	68.4403	17.9292	-132.386	55.9069	6.17851	-157.525	97.6101	8.57751	-104.728	86.5942	2.22628	-132.368	72.0355	-6.32962	-154.154	111.549	-12.9879	-99.6026	97.784	-18.8741	-122.024	87.1452	-24.6162	-141.334	118.572	5.85294	-51.0493	122.342	-6.34102	-24.1187	92.4301	16.7191	-29.88	
17	0.141667	56.8338	1.82323	-32.799	42.3467	-6.65256	-63.7417	28.0051	-9.30927	-87.9201	22.4404	-12.7449	-109.097	66.828	29.6889	-101.625	52.8379	23.4657	-122.632	41.7033	15.2475	-141.533	85.1271	20.3629	-110.692	70.2752	14.1624	-135.413	52.9327	6.77105	-157.877	96.9207	7.86191	-107.174	88.1107	-1.4988	-133.592	73.1744	-7.00201	-150.945	109.233	-12.6247	-101.684	99.2775	-20.7983	-121.855	93.1405	-28.159	-140.575	120.714	4.29616	-51.173	122.794	-7.66953	-21.6636	91.3362	18.1816	-28.9417	
